<svg width="399" height="458" viewBox="0 0 399 458" fill="none" xmlns="http://www.w3.org/2000/svg">
<path d="M65.2809 237.918C67.7143 235.486 71.0136 234.121 74.4536 234.121H391.851C397.633 234.121 400.528 241.112 396.437 245.199L333.72 307.866C331.287 310.298 327.988 311.664 324.548 311.664H7.15008C1.36809 311.664 -1.52637 304.672 2.56375 300.585L65.2809 237.918Z" fill="#00FFA3"/>
<path d="M65.2809 3.7973C67.7143 1.36583 71.0136 0 74.4536 0H391.851C397.633 0 400.528 6.99175 396.437 11.0786L333.72 73.7458C331.287 76.1773 327.988 77.5431 324.548 77.5431H7.15008C1.36809 77.5431 -1.52637 70.5514 2.56375 66.4645L65.2809 3.7973Z" fill="#00FFA3"/>
<path d="M333.72 120.112C331.287 117.68 327.988 116.315 324.548 116.315H7.15008C1.36808 116.315 -1.52637 123.306 2.56375 127.393L65.2809 190.06C67.7143 192.492 71.0136 193.858 74.4536 193.858H391.851C397.633 193.858 400.528 186.866 396.437 182.779L333.72 120.112Z" fill="#00FFA3"/>
<path d="M16.8321 435.806H38.5561C41.6076 435.806 44.0813 438.314 44.0813 441.408C44.0813 444.501 41.6076 447.009 38.5561 447.009H12.3534C11.9443 447.009 11.5488 447.157 11.2379 447.427L3.32641 454.289C2.11533 455.339 2.84806 457.35 4.44187 457.35H37.2439C37.2574 457.35 37.2683 457.339 37.2683 457.325C37.2683 457.311 37.2805 457.3 37.2947 457.301C37.7075 457.333 38.1247 457.35 38.5457 457.35C47.247 457.35 54.3008 450.213 54.3008 441.408C54.3008 433.047 47.9399 426.189 39.8477 425.519C39.8339 425.518 39.8232 425.506 39.8232 425.492C39.8232 425.477 39.8113 425.465 39.7967 425.465H16.3931C13.3416 425.465 10.8679 422.957 10.8679 419.864C10.8679 416.77 13.3416 414.262 16.3931 414.262H42.5597C42.9905 414.262 43.4056 414.098 43.7224 413.802L51.0688 406.94C52.2181 405.867 51.4689 403.921 49.9062 403.921H16.8321C16.8306 403.921 16.8293 403.923 16.8293 403.924C16.8293 403.926 16.828 403.927 16.8265 403.927C16.6859 403.923 16.5449 403.921 16.4035 403.921C7.70222 403.921 0.648437 411.059 0.648438 419.864C0.648438 428.669 7.70222 435.806 16.4035 435.806C16.5449 435.806 16.6859 435.804 16.8265 435.801C16.828 435.801 16.8293 435.802 16.8293 435.803C16.8293 435.805 16.8306 435.806 16.8321 435.806Z" fill="white"/>
<path d="M143.361 403.921C142.411 403.921 141.641 404.7 141.641 405.661V455.611C141.641 456.571 142.411 457.35 143.361 457.35H183.14C183.615 457.35 184.069 457.151 184.394 456.8L189.374 451.428C190.403 450.317 189.625 448.499 188.119 448.499H153.387C152.437 448.499 151.667 447.72 151.667 446.759V405.661C151.667 404.7 150.897 403.921 149.948 403.921H143.361Z" fill="white"/>
<path fill-rule="evenodd" clip-rule="evenodd" d="M79.6479 403.921C79.6453 403.921 79.6432 403.923 79.6432 403.926C79.6432 403.929 79.6413 403.931 79.6388 403.931C74.5545 404.152 70.4718 408.269 70.252 413.396C70.2519 413.399 70.2498 413.401 70.2473 413.401C70.2459 413.401 70.2447 413.401 70.2438 413.402C70.2431 413.403 70.2427 413.404 70.2427 413.405V447.005C70.2427 447.007 70.2447 447.009 70.2472 447.009C70.2497 447.009 70.2517 447.011 70.2516 447.014C70.2457 447.155 70.2427 447.297 70.2427 447.44C70.2427 452.767 74.4113 457.113 79.6388 457.341C79.6413 457.341 79.6432 457.343 79.6432 457.345L79.6438 457.348L79.6449 457.349C79.6457 457.35 79.6468 457.35 79.6479 457.35H115.743C115.746 457.35 115.748 457.348 115.748 457.345L115.748 457.343L115.75 457.341L115.752 457.341C120.98 457.113 125.148 452.767 125.148 447.44C125.148 447.297 125.145 447.155 125.139 447.014C125.139 447.011 125.141 447.009 125.144 447.009C125.146 447.009 125.148 447.007 125.148 447.005V413.405C125.148 413.403 125.146 413.401 125.144 413.401C125.141 413.401 125.139 413.399 125.139 413.396C124.919 408.269 120.836 404.152 115.752 403.931C115.75 403.931 115.748 403.929 115.748 403.926C115.748 403.923 115.746 403.921 115.743 403.921H79.6479ZM86.3762 413.401L86.3738 413.402L86.3732 413.404C86.3732 413.405 86.372 413.407 86.3704 413.407C83.1928 413.546 80.6411 416.136 80.5037 419.361C80.5037 419.362 80.5024 419.363 80.5008 419.363C80.4992 419.363 80.4979 419.365 80.4979 419.366V440.501C80.4979 440.503 80.4991 440.504 80.5007 440.504C80.5023 440.504 80.5035 440.506 80.5035 440.507C80.4998 440.596 80.4979 440.685 80.4979 440.775C80.4979 444.126 83.1033 446.86 86.3704 447.003C86.372 447.003 86.3732 447.005 86.3732 447.006L86.3737 447.008L86.3747 447.009L86.3762 447.009H109.015L109.016 447.009L109.017 447.008L109.018 447.006C109.018 447.005 109.019 447.003 109.021 447.003C112.288 446.86 114.893 444.126 114.893 440.775C114.893 440.685 114.891 440.596 114.887 440.507L114.888 440.506L114.888 440.506L114.89 440.504C114.892 440.504 114.893 440.503 114.893 440.501V419.366C114.893 419.365 114.892 419.363 114.89 419.363C114.889 419.363 114.887 419.362 114.887 419.361C114.75 416.136 112.198 413.546 109.021 413.407C109.019 413.407 109.018 413.405 109.018 413.404L109.017 413.402L109.016 413.401L109.015 413.401H86.3762Z" fill="white"/>
<path fill-rule="evenodd" clip-rule="evenodd" d="M247.217 455.611C247.217 456.571 247.981 457.35 248.923 457.35H255.67C256.611 457.35 257.375 456.571 257.375 455.611V414.267C257.375 414.264 257.373 414.262 257.371 414.262L257.368 414.262L257.368 414.261C257.367 414.26 257.366 414.259 257.366 414.258C257.372 414.116 257.375 413.974 257.375 413.832C257.375 408.504 253.246 404.159 248.068 403.931C248.066 403.931 248.064 403.929 248.064 403.926C248.064 403.923 248.062 403.921 248.059 403.921H213.407C213.404 403.921 213.403 403.923 213.403 403.926C213.403 403.928 213.4 403.93 213.398 403.93C213.259 403.924 213.12 403.921 212.979 403.921C207.603 403.921 203.245 408.358 203.245 413.832C203.245 413.974 203.248 414.116 203.254 414.258C203.254 414.26 203.252 414.262 203.249 414.262C203.247 414.262 203.245 414.264 203.245 414.267V455.611C203.245 456.571 204.009 457.35 204.95 457.35H211.697C212.639 457.35 213.403 456.571 213.403 455.611V438.408C213.403 437.447 214.166 436.668 215.108 436.668H245.512C246.454 436.668 247.217 437.447 247.217 438.408V455.611ZM213.403 427.173V418.571C213.403 415.24 216.055 412.539 219.328 412.539H241.292C244.565 412.539 247.218 415.24 247.218 418.571V427.173C247.218 428.133 246.454 428.912 245.512 428.912H215.108C214.166 428.912 213.403 428.133 213.403 427.173Z" fill="white"/>
<path fill-rule="evenodd" clip-rule="evenodd" d="M389.625 457.35C388.674 457.35 387.904 456.571 387.904 455.611V438.408C387.904 437.447 387.133 436.668 386.182 436.668H355.442C354.491 436.668 353.72 437.447 353.72 438.408V455.611C353.72 456.571 352.949 457.35 351.998 457.35H345.186C344.235 457.35 343.465 456.571 343.465 455.611V414.267L343.465 414.266L343.465 414.264C343.466 414.263 343.468 414.262 343.469 414.262C343.472 414.262 343.474 414.26 343.473 414.258C343.468 414.116 343.465 413.974 343.465 413.832C343.465 408.358 347.865 403.921 353.292 403.921C353.434 403.921 353.575 403.924 353.715 403.93C353.718 403.93 353.72 403.928 353.72 403.926C353.72 403.923 353.722 403.921 353.724 403.921L388.754 403.921C388.756 403.921 388.758 403.923 388.758 403.926C388.758 403.929 388.76 403.931 388.763 403.931C393.99 404.159 398.159 408.504 398.159 413.832C398.159 413.974 398.156 414.116 398.15 414.258C398.15 414.26 398.152 414.262 398.154 414.262C398.155 414.262 398.157 414.263 398.157 414.264C398.158 414.265 398.159 414.266 398.159 414.267V455.611C398.159 456.571 397.388 457.35 396.437 457.35H389.625ZM353.72 418.571V427.173C353.72 428.133 354.491 428.912 355.442 428.912H386.182C387.133 428.912 387.904 428.133 387.904 427.173V418.571C387.904 415.24 385.225 412.539 381.921 412.539H359.702C356.398 412.539 353.72 415.24 353.72 418.571Z" fill="white"/>
<path d="M282.769 403.921C283.268 403.921 283.742 404.145 284.066 404.532L314.323 440.826C315.352 442.056 317.326 441.314 317.326 439.697V405.661C317.326 404.7 318.09 403.921 319.032 403.921H325.778C326.72 403.921 327.484 404.7 327.484 405.661V455.611C327.484 456.571 326.72 457.35 325.778 457.35H317.39C317.355 457.35 317.326 457.321 317.326 457.285C317.326 457.269 317.321 457.254 317.31 457.242L286.546 421.202C285.509 419.992 283.556 420.739 283.556 422.346V455.611C283.556 456.571 282.792 457.35 281.85 457.35H275.06C274.118 457.35 273.355 456.571 273.355 455.611V405.661C273.355 404.7 274.118 403.921 275.06 403.921H282.769Z" fill="white"/>
</svg>
